# Blender v2.79 (sub 0) OBJ File: ''
# www.blender.org
mtllib Cone.mtl
o Cone
v 0.000000 0.000000 -1.000000
v 0.000000 -0.000000 0.000000
v 0.000000 1.000000 -1.000000
v 0.195090 0.980785 -1.000000
v 0.382683 0.923880 -1.000000
v 0.555570 0.831470 -1.000000
v 0.707107 0.707107 -1.000000
v 0.831470 0.555570 -1.000000
v 0.923880 0.382683 -1.000000
v 0.980785 0.195090 -1.000000
v 1.000000 0.000000 -1.000000
v 0.980785 -0.195090 -1.000000
v 0.923880 -0.382683 -1.000000
v 0.831470 -0.555570 -1.000000
v 0.707107 -0.707107 -1.000000
v 0.555570 -0.831470 -1.000000
v 0.382683 -0.923880 -1.000000
v 0.195090 -0.980785 -1.000000
v -0.000000 -1.000000 -1.000000
v -0.195091 -0.980785 -1.000000
v -0.382684 -0.923879 -1.000000
v -0.555571 -0.831469 -1.000000
v -0.707107 -0.707106 -1.000000
v -0.831470 -0.555570 -1.000000
v -0.923880 -0.382683 -1.000000
v -0.980785 -0.195089 -1.000000
v -1.000000 0.000001 -1.000000
v -0.980785 0.195091 -1.000000
v -0.923879 0.382684 -1.000000
v -0.831469 0.555571 -1.000000
v -0.707106 0.707108 -1.000000
v -0.555569 0.831470 -1.000000
v -0.382682 0.923880 -1.000000
v -0.195089 0.980786 -1.000000
vn 0.0000 0.0000 -1.0000
vn 0.0695 0.7054 0.7054
vn 0.2058 0.6783 0.7054
vn 0.3341 0.6251 0.7054
vn 0.4497 0.5479 0.7054
vn 0.5479 0.4497 0.7054
vn 0.6251 0.3341 0.7054
vn 0.6783 0.2058 0.7054
vn 0.7054 0.0695 0.7054
vn 0.7054 -0.0695 0.7054
vn 0.6783 -0.2058 0.7054
vn 0.6251 -0.3341 0.7054
vn 0.5479 -0.4497 0.7054
vn 0.4497 -0.5479 0.7054
vn 0.3341 -0.6251 0.7054
vn 0.2058 -0.6783 0.7054
vn 0.0695 -0.7054 0.7054
vn -0.0695 -0.7054 0.7054
vn -0.2058 -0.6783 0.7054
vn -0.3341 -0.6251 0.7054
vn -0.4497 -0.5479 0.7054
vn -0.5479 -0.4497 0.7054
vn -0.6251 -0.3341 0.7054
vn -0.6783 -0.2058 0.7054
vn -0.7054 -0.0695 0.7054
vn -0.7054 0.0695 0.7054
vn -0.6783 0.2058 0.7054
vn -0.6251 0.3341 0.7054
vn -0.5479 0.4497 0.7054
vn -0.4497 0.5479 0.7054
vn -0.3341 0.6251 0.7054
vn -0.2058 0.6783 0.7054
vn -0.0695 0.7054 0.7054
usemtl None
s off
f 1//1 3//1 4//1
f 3//2 2//2 4//2
f 1//1 4//1 5//1
f 4//3 2//3 5//3
f 1//1 5//1 6//1
f 5//4 2//4 6//4
f 1//1 6//1 7//1
f 6//5 2//5 7//5
f 1//1 7//1 8//1
f 7//6 2//6 8//6
f 1//1 8//1 9//1
f 8//7 2//7 9//7
f 1//1 9//1 10//1
f 9//8 2//8 10//8
f 1//1 10//1 11//1
f 10//9 2//9 11//9
f 1//1 11//1 12//1
f 11//10 2//10 12//10
f 1//1 12//1 13//1
f 12//11 2//11 13//11
f 1//1 13//1 14//1
f 13//12 2//12 14//12
f 1//1 14//1 15//1
f 14//13 2//13 15//13
f 1//1 15//1 16//1
f 15//14 2//14 16//14
f 1//1 16//1 17//1
f 16//15 2//15 17//15
f 1//1 17//1 18//1
f 17//16 2//16 18//16
f 1//1 18//1 19//1
f 18//17 2//17 19//17
f 1//1 19//1 20//1
f 19//18 2//18 20//18
f 1//1 20//1 21//1
f 20//19 2//19 21//19
f 1//1 21//1 22//1
f 21//20 2//20 22//20
f 1//1 22//1 23//1
f 22//21 2//21 23//21
f 1//1 23//1 24//1
f 23//22 2//22 24//22
f 1//1 24//1 25//1
f 24//23 2//23 25//23
f 1//1 25//1 26//1
f 25//24 2//24 26//24
f 1//1 26//1 27//1
f 26//25 2//25 27//25
f 1//1 27//1 28//1
f 27//26 2//26 28//26
f 1//1 28//1 29//1
f 28//27 2//27 29//27
f 1//1 29//1 30//1
f 29//28 2//28 30//28
f 1//1 30//1 31//1
f 30//29 2//29 31//29
f 1//1 31//1 32//1
f 31//30 2//30 32//30
f 1//1 32//1 33//1
f 32//31 2//31 33//31
f 1//1 33//1 34//1
f 33//32 2//32 34//32
f 1//1 34//1 3//1
f 34//33 2//33 3//33
