mtllib GenericMaterial.mtl
v -0.5 -0.7 -0.5
v -0.5 0.7 -0.5
v -0.5 -0.7 0.5
v -0.5 0.7 0.5
v 0.5 -0.7 -0.5
v 0.5 0.7 -0.5
v 0.5 -0.7 0.5
v 0.5 0.7 0.5
v 0.5 -0.2 0.3
v 0.5 0.2 0.3
v 0.5 -0.2 0.5
v 0.5 0.2 0.5
v 0.7 -0.2 0.3
v 0.7 0.2 0.3
v 0.7 -0.2 0.5
v 0.7 0.2 0.5
vt 0 0 0
vt 0 1 0
vt 1 0 0
vt 1 1 0
vn 1.0 0.0 0.0
vn 0.0 1.0 0.0
vn 0.0 0.0 1.0
vn -1.0 0.0 0.0
vn 0.0 -1.0 0.0
vn 0.0 0.0 -1.0
s off
usemtl GenericMaterial
f 8/2/1 7/1/1 5/3/1
f 8/2/1 5/3/1 6/4/1
f 2/2/2 4/1/2 8/3/2
f 2/2/2 8/3/2 6/4/2
f 4/2/3 3/1/3 7/3/3
f 4/2/3 7/3/3 8/4/3
f 2/2/4 1/1/4 3/3/4
f 2/2/4 3/3/4 4/4/4
f 3/2/5 1/1/5 5/3/5
f 3/2/5 5/3/5 7/4/5
f 6/2/6 5/1/6 1/3/6
f 6/2/6 1/3/6 2/4/6
usemtl ShinyMaterial
f 16/2/1 15/1/1 13/3/1
f 16/2/1 13/3/1 14/4/1
f 10/2/2 12/1/2 16/3/2
f 10/2/2 16/3/2 14/4/2
f 12/2/3 11/1/3 15/3/3
f 12/2/3 15/3/3 16/4/3
f 10/2/4 9/1/4 11/3/4
f 10/2/4 11/3/4 12/4/4
f 11/2/5 9/1/5 13/3/5
f 11/2/5 13/3/5 15/4/5
f 14/2/6 13/1/6 9/3/6
f 14/2/6 9/3/6 10/4/6